<?xml version="1.0" encoding="utf-8"?>
<!-- Generator: Adobe Illustrator 22.1.0, SVG Export Plug-In . SVG Version: 6.00 Build 0)  -->
<svg version="1.1" id="圖層_1" xmlns="http://www.w3.org/2000/svg" xmlns:xlink="http://www.w3.org/1999/xlink" x="0px" y="0px"
	 viewBox="0 0 566.9 566.9" style="enable-background:new 0 0 566.9 566.9;" xml:space="preserve">
<style type="text/css">
	.st0{fill:none;}
	.st1{fill:#EFCADF;}
	.st2{fill:#4969B1;}
</style>
<circle class="st0" cx="283.5" cy="283.5" r="264.2"/>
<g>
	<g>
		<g>
			<path class="st1" d="M235.1,410.6c-3.6,0-7.1-0.8-10.6-2.5c-12.2-6.1-17.3-21.2-11.4-33.8l94.6-203.6
				c5.9-12.6,20.5-17.9,32.6-11.8c12.2,6.1,17.3,21.2,11.4,33.8l-94.6,203.6C252.9,405.3,244.2,410.6,235.1,410.6z"/>
		</g>
		<g>
			<path class="st2" d="M178.1,396.8c-4.7,0-9.4-1.4-13.5-4.3l-106-75.1c-6.5-4.5-10.3-12-10.6-19.9c-0.2-7.9,3.3-15.6,9.4-20.5
				l106.1-84.3c10.6-8.3,25.7-6.3,33.7,4.7c8,11,6.1,26.6-4.5,34.9l-79.4,63.1l78.6,55.6c11,7.7,13.9,23.3,6.3,34.7
				C193.4,392.9,185.8,396.8,178.1,396.8z"/>
		</g>
		<g>
			<path class="st2" d="M388.8,396.8c-7.2,0-14.5-3.4-19.2-9.7c-8-11-6.1-26.6,4.5-34.9l79.6-63.3l-78.6-55.6
				c-11-7.7-13.9-23.3-6.3-34.7c7.4-11.4,22.5-14.4,33.5-6.5l106,75.1c6.5,4.5,10.3,12,10.6,19.9c0.2,7.9-3.3,15.6-9.4,20.5
				l-106.1,84.3C398.9,394.9,393.8,396.8,388.8,396.8z"/>
		</g>
	</g>
</g>
</svg>
