<?xml version="1.0" encoding="utf-8"?>
<!-- Generator: Adobe Illustrator 22.1.0, SVG Export Plug-In . SVG Version: 6.00 Build 0)  -->
<svg version="1.1" id="圖層_1" xmlns="http://www.w3.org/2000/svg" xmlns:xlink="http://www.w3.org/1999/xlink" x="0px" y="0px"
	 viewBox="0 0 566.9 566.9" style="enable-background:new 0 0 566.9 566.9;" xml:space="preserve">
<style type="text/css">
	.st0{fill:#EFCADF;}
	.st1{fill:#4969B1;}
</style>
<g>
	<g>
		<g>
			<path class="st0" d="M229.2,424.4c-4,0-8-0.9-11.9-2.8c-13.6-6.8-19.4-23.8-12.8-37.9l106.1-228.4c6.6-14.1,22.9-20.1,36.6-13.2
				c13.6,6.8,19.4,23.8,12.8,37.9L253.9,408.3C249.2,418.4,239.5,424.4,229.2,424.4z"/>
		</g>
		<g>
			<path class="st1" d="M165.3,408.9c-5.3,0-10.5-1.6-15.2-4.8l-119-84.2c-7.3-5.1-11.6-13.5-11.9-22.3c-0.2-8.9,3.7-17.5,10.5-23
				l119.1-94.5c11.9-9.3,28.8-7.1,37.8,5.3c9,12.4,6.8,29.9-5.1,39.2l-89.1,70.8l88.2,62.4c12.3,8.6,15.6,26.2,7,39
				C182.4,404.5,173.9,408.9,165.3,408.9z"/>
		</g>
		<g>
			<path class="st1" d="M401.6,408.9c-8.1,0-16.2-3.8-21.5-10.9c-9-12.4-6.8-29.9,5.1-39.2l89.3-71.1l-88.2-62.4
				c-12.3-8.6-15.6-26.2-7-39c8.3-12.8,25.2-16.2,37.6-7.3l119,84.2c7.3,5.1,11.6,13.5,11.9,22.3c0.2,8.9-3.7,17.5-10.5,23
				l-119.1,94.5C413,406.7,407.3,408.9,401.6,408.9z"/>
		</g>
	</g>
</g>
</svg>
